<svg width="18" height="20" viewBox="0 0 18 20" fill="none" xmlns="http://www.w3.org/2000/svg">
<path d="M14.9961 12.0436L15.9297 9.59831C16.0859 9.18815 15.7852 8.75065 15.3438 8.75065H13.0586C13.4883 8.01237 13.7539 7.16471 13.7539 6.25065V6.23893C15.2852 5.93425 16.2539 5.49284 16.2539 5.00065C16.2539 4.48112 15.1875 4.02018 13.5156 3.71159C13.1562 2.43034 12.4609 1.14128 11.9297 0.477214C11.5586 0.01237 10.918 -0.132161 10.3867 0.133464L9.30859 0.672526C8.95703 0.848308 8.54297 0.848308 8.19141 0.672526L7.11328 0.133464C6.58203 -0.132161 5.94141 0.01237 5.57031 0.477214C5.04297 1.14128 4.34375 2.43034 3.98438 3.71159C2.31641 4.02018 1.25 4.48112 1.25 5.00065C1.25 5.49284 2.21875 5.93425 3.75 6.23893V6.25065C3.75 7.16471 4.01562 8.01237 4.44531 8.75065H2.19922C1.75 8.75065 1.44922 9.20768 1.625 9.62175L2.63281 11.9733C1.06641 12.8835 0 14.5592 0 16.5007V18.2507C0 19.2155 0.785156 20.0007 1.75 20.0007H15.75C16.7148 20.0007 17.5 19.2155 17.5 18.2507V16.5007C17.5 14.61 16.4922 12.9694 14.9961 12.0436ZM6.875 18.7507L5.25 11.2507L7.1875 12.5007L8.125 14.0632L6.875 18.7507ZM10.625 18.7507L9.375 14.0632L10.3125 12.5007L12.25 11.2507L10.625 18.7507ZM12.2539 7.0905C12.1016 7.55534 11.9805 8.05143 11.6094 8.39518C11.2148 8.75846 9.73438 9.27018 9.10938 7.41862C9 7.0905 8.50781 7.0905 8.39453 7.41862C7.73047 9.37956 6.20703 8.68425 5.89453 8.39518C5.52344 8.05143 5.39844 7.55534 5.25 7.0905C5.21875 6.99284 5.00391 6.86784 5.00391 6.86393V6.44206C6.10938 6.58268 7.38672 6.66862 8.75391 6.66862C10.1211 6.66862 11.3984 6.58659 12.5039 6.44206V6.86393C12.5 6.86784 12.2852 6.98893 12.2539 7.0905Z" fill="black"/>
</svg>
