<svg width="18" height="20" viewBox="0 0 18 20" fill="none" xmlns="http://www.w3.org/2000/svg">
<path d="M14.9961 12.0435L15.9297 9.59822C16.0859 9.18806 15.7852 8.75056 15.3438 8.75056H13.0586C13.4883 8.01228 13.7539 7.16462 13.7539 6.25056V6.23884C15.2852 5.93415 16.2539 5.49275 16.2539 5.00056C16.2539 4.48103 15.1875 4.02009 13.5156 3.7115C13.1562 2.43025 12.4609 1.14118 11.9297 0.477122C11.5586 0.0122785 10.918 -0.132253 10.3867 0.133372L9.30859 0.672435C8.95703 0.848216 8.54297 0.848216 8.19141 0.672435L7.11328 0.133372C6.58203 -0.132253 5.94141 0.0122785 5.57031 0.477122C5.04297 1.14118 4.34375 2.43025 3.98438 3.7115C2.31641 4.02009 1.25 4.48103 1.25 5.00056C1.25 5.49275 2.21875 5.93415 3.75 6.23884V6.25056C3.75 7.16462 4.01562 8.01228 4.44531 8.75056H2.19922C1.75 8.75056 1.44922 9.20759 1.625 9.62165L2.63281 11.9732C1.06641 12.8834 0 14.5592 0 16.5006V18.2506C0 19.2154 0.785156 20.0006 1.75 20.0006H15.75C16.7148 20.0006 17.5 19.2154 17.5 18.2506V16.5006C17.5 14.6099 16.4922 12.9693 14.9961 12.0435ZM6.875 18.7506L5.25 11.2506L7.1875 12.5006L8.125 14.0631L6.875 18.7506ZM10.625 18.7506L9.375 14.0631L10.3125 12.5006L12.25 11.2506L10.625 18.7506ZM12.2539 7.0904C12.1016 7.55525 11.9805 8.05134 11.6094 8.39509C11.2148 8.75837 9.73438 9.27009 9.10938 7.41853C9 7.0904 8.50781 7.0904 8.39453 7.41853C7.73047 9.37947 6.20703 8.68415 5.89453 8.39509C5.52344 8.05134 5.39844 7.55525 5.25 7.0904C5.21875 6.99275 5.00391 6.86775 5.00391 6.86384V6.44197C6.10938 6.58259 7.38672 6.66853 8.75391 6.66853C10.1211 6.66853 11.3984 6.5865 12.5039 6.44197V6.86384C12.5 6.86775 12.2852 6.98884 12.2539 7.0904Z" fill="#969393"/>
</svg>
