<svg width="23" height="18" viewBox="0 0 23 18" fill="none" xmlns="http://www.w3.org/2000/svg">
<path d="M16.25 6.5C16.25 3.04688 12.6133 0.25 8.125 0.25C3.63672 0.25 0 3.04688 0 6.5C0 7.83984 0.550781 9.07422 1.48438 10.0938C0.960938 11.2734 0.0976562 12.2109 0.0859375 12.2227C0 12.3125 -0.0234375 12.4453 0.0273438 12.5625C0.078125 12.6797 0.1875 12.75 0.3125 12.75C1.74219 12.75 2.92578 12.2695 3.77734 11.7734C5.03516 12.3867 6.52344 12.75 8.125 12.75C12.6133 12.75 16.25 9.95312 16.25 6.5ZM21.0156 15.0938C21.9492 14.0781 22.5 12.8398 22.5 11.5C22.5 8.88672 20.4102 6.64844 17.4492 5.71484C17.4844 5.97266 17.5 6.23438 17.5 6.5C17.5 10.6367 13.293 14 8.125 14C7.70312 14 7.29297 13.9688 6.88672 13.9258C8.11719 16.1719 11.0078 17.75 14.375 17.75C15.9766 17.75 17.4648 17.3906 18.7227 16.7734C19.5742 17.2695 20.7578 17.75 22.1875 17.75C22.3125 17.75 22.4258 17.6758 22.4727 17.5625C22.5234 17.4492 22.5 17.3164 22.4141 17.2227C22.4023 17.2109 21.5391 16.2773 21.0156 15.0938Z" fill="#E60000"/>
</svg>
