<svg width="134" height="40" viewBox="0 0 134 40" fill="none" xmlns="http://www.w3.org/2000/svg">
<g clip-path="url(#clip0)">
<path d="M20.0929 14.1587H8.24187L0 0H28.3557L20.0929 14.1587Z" fill="#E60000"/>
<path d="M29.6428 0.0715027L37.9719 14.2258L23.3438 40.1638H6.27756L29.6428 0.0715027Z" fill="#E60000"/>
<path d="M119.73 30.9033C119.217 30.8672 118.377 30.7455 117.982 30.6497C116.221 30.2234 115.339 29.4368 114.943 27.9397C114.843 27.5626 114.83 27.4198 114.811 26.4747C114.797 25.7296 114.805 25.4006 114.841 25.3338C114.891 25.2413 114.906 25.2401 115.855 25.2515L116.818 25.2633L116.822 26.0668C116.826 26.6812 116.844 26.9317 116.9 27.1309C117.143 27.9892 117.68 28.5073 118.587 28.759C119.613 29.0438 120.192 29.0731 124.421 29.0534C128.378 29.035 128.652 29.0204 129.611 28.7772C130.712 28.4978 131.272 27.9584 131.509 26.9465C131.621 26.4673 131.621 25.0845 131.508 24.6804C131.295 23.9183 130.92 23.5136 130.22 23.2903C129.505 23.0624 129.472 23.0609 124.204 23.028C119.504 22.9987 119.272 22.9936 118.725 22.9059C117.689 22.74 117.138 22.5786 116.545 22.2669C115.577 21.7584 114.985 20.7993 114.801 19.4427C114.727 18.9011 114.766 17.4246 114.865 16.989C115.038 16.2253 115.358 15.6109 115.825 15.1455C116.324 14.6474 116.921 14.3464 117.898 14.1004C118.875 13.8542 119.633 13.779 121.711 13.722C123.839 13.6635 128.494 13.7324 129.416 13.8359C131.516 14.0716 132.533 14.7211 133.004 16.1271C133.185 16.6662 133.265 17.2686 133.251 17.979L133.238 18.5743H131.284L131.256 18.0748C131.207 17.2025 131.036 16.6833 130.669 16.291C130.332 15.9308 129.878 15.7492 128.972 15.6115C128.508 15.5411 128.075 15.5339 124.291 15.5339C119.835 15.5339 119.543 15.5454 118.726 15.7517C117.937 15.9512 117.486 16.2723 117.211 16.8301C116.988 17.2823 116.914 17.7384 116.941 18.4874C117.003 20.1919 117.603 20.7863 119.534 21.0564C119.956 21.1155 120.777 21.1313 124.812 21.1581C129.736 21.1907 129.939 21.1982 130.846 21.3807C132.571 21.7277 133.442 22.7159 133.648 24.5597C133.716 25.1691 133.706 26.6586 133.631 27.1526C133.408 28.6237 132.767 29.6087 131.675 30.1603C131.116 30.4425 130.18 30.6878 129.116 30.8309C128.665 30.8916 127.983 30.9027 124.269 30.9099C121.892 30.9147 119.85 30.9117 119.73 30.9033ZM40.7447 22.3098V13.9052H44.0459L51.589 21.3C55.7378 25.3671 59.1581 28.701 59.1898 28.7087C59.2376 28.7203 59.2494 27.45 59.2585 21.3248L59.2695 13.927H61.3109L61.3219 22.3207L61.3328 30.7144H58.2699L50.9515 23.544C46.9264 19.6002 43.4712 16.214 43.2734 16.0189C42.9825 15.7321 42.9058 15.6768 42.8723 15.7295C42.8464 15.7702 42.8306 18.5966 42.8302 23.2545L42.8295 30.7144H40.7447V22.3098ZM65.5131 22.3207L65.5241 13.927H82.0292L82.0409 14.8498L82.0526 15.7727L74.809 15.7836L67.5655 15.7946V21.0502L74.505 21.0612L81.4445 21.0722L81.4328 21.995L81.4211 22.9179L74.4933 22.9396L67.5655 22.9613L67.5543 25.9039L67.5432 28.8464L74.7861 28.8574L82.0292 28.8684L82.0409 29.7914L82.0526 30.7144H65.5022L65.5131 22.3207ZM89.5434 30.5303C88.9649 29.0998 83.144 13.972 83.1614 13.9439C83.1745 13.9226 83.643 13.9052 84.2024 13.9052C85.2099 13.9052 85.2202 13.9061 85.2816 14.0029C85.3157 14.0567 86.618 17.3941 88.1756 21.4194C89.7332 25.4446 91.0269 28.7744 91.0504 28.8187C91.074 28.8631 91.1086 28.8827 91.1273 28.8622C91.1461 28.8417 92.3978 25.4924 93.909 21.4194C95.4201 17.3463 96.6761 13.9891 96.7 13.9589C96.7336 13.9163 97.0501 13.9065 98.1134 13.9154L99.4835 13.9269L102.231 21.3713C103.743 25.4658 104.999 28.8357 105.024 28.86C105.054 28.89 105.081 28.8706 105.109 28.7994C105.678 27.3319 110.564 14.8156 110.711 14.4481L110.918 13.9269L111.996 13.9153L113.074 13.9036L113.054 14.0067C113.043 14.0634 111.581 17.8457 109.806 22.412L106.577 30.7144H105.069C103.902 30.7144 103.556 30.7021 103.54 30.6601C103.528 30.6302 102.322 27.4003 100.858 23.4825C99.3946 19.5648 98.1794 16.3121 98.1578 16.2545C98.1285 16.1767 98.1058 16.1623 98.0694 16.1987C98.0425 16.2256 96.8061 19.4977 95.3218 23.4701L92.6232 30.6927L91.1208 30.7041L89.6183 30.7155L89.5434 30.5303Z" fill="black"/>
</g>
<defs>
<clipPath id="clip0">
<rect width="133.694" height="40" fill="white"/>
</clipPath>
</defs>
</svg>
