<?xml version="1.0" standalone="no"?>
<!DOCTYPE svg PUBLIC "-//W3C//DTD SVG 20010904//EN"
 "http://www.w3.org/TR/2001/REC-SVG-20010904/DTD/svg10.dtd">
<svg version="1.0" xmlns="http://www.w3.org/2000/svg"
 width="80.000000pt" height="80.000000pt" viewBox="0 0 80.000000 80.000000"
 preserveAspectRatio="xMidYMid meet">
<metadata>
Created by potrace 1.11, written by Peter Selinger 2001-2013
</metadata>
<g transform="translate(0.000000,80.000000) scale(0.100000,-0.100000)"
fill="#000000" stroke="none">
<path d="M6 785 c4 -8 10 -15 15 -15 5 0 9 -7 9 -16 0 -8 7 -22 15 -31 8 -8
13 -18 10 -23 -3 -4 2 -11 11 -14 8 -3 12 -10 9 -16 -3 -5 -1 -10 5 -10 7 0 9
-7 6 -16 -3 -8 -2 -12 3 -9 5 3 12 -4 16 -15 3 -11 11 -20 16 -20 5 0 8 -3 7
-7 -3 -12 23 -56 41 -70 10 -7 22 -8 32 -2 9 4 19 5 23 2 10 -10 156 -10 156
0 0 5 6 5 13 -1 10 -9 16 -4 26 23 7 20 16 33 21 30 4 -3 11 2 14 11 3 8 2 12
-4 9 -6 -3 -7 1 -4 10 4 9 12 14 19 11 8 -3 11 4 9 20 -2 18 2 24 14 22 11 -2
16 3 14 14 -1 9 2 19 8 23 17 11 11 -29 -10 -60 -12 -16 -28 -45 -36 -62 -9
-18 -21 -33 -26 -33 -5 0 -6 -4 -3 -10 3 -5 1 -10 -5 -10 -6 0 -9 -4 -6 -8 7
-11 -29 -64 -37 -55 -6 6 -11 -14 -10 -44 1 -7 -3 -11 -7 -8 -8 5 -22 -19 -25
-40 0 -5 -7 -9 -14 -7 -7 1 -10 -2 -7 -7 4 -5 0 -15 -7 -23 -8 -7 -12 -19 -9
-26 2 -6 -1 -12 -6 -12 -6 0 -18 -18 -28 -40 -10 -21 -22 -36 -27 -33 -6 4 -8
0 -4 -10 4 -10 0 -20 -11 -26 -9 -6 -13 -11 -9 -11 5 0 -1 -13 -13 -30 -12
-16 -18 -30 -14 -30 4 0 -1 -7 -12 -15 -10 -8 -14 -15 -9 -15 6 0 4 -4 -4 -9
-8 -5 -16 -18 -17 -28 -2 -9 -8 -19 -13 -21 -6 -2 -11 -8 -11 -13 0 -5 76 -9
177 -9 97 0 173 3 170 7 -4 3 3 18 15 31 13 14 16 21 8 17 -11 -6 -10 -3 3 12
9 11 17 25 17 31 0 7 5 12 10 12 6 0 10 7 10 15 0 8 5 15 11 15 5 0 8 4 4 9
-3 5 -1 12 5 16 5 3 17 23 27 43 9 20 24 43 33 50 12 11 13 12 0 6 -8 -5 -3 8
12 28 15 19 24 38 21 42 -4 3 -1 6 5 6 6 0 9 7 5 17 -4 11 -3 14 5 9 7 -4 14
3 18 19 3 14 11 25 17 25 6 0 8 3 4 6 -3 4 1 13 9 21 8 8 12 18 9 23 -3 4 2
11 11 14 8 3 12 10 9 16 -3 5 -2 10 3 10 10 0 4 41 -7 50 -3 3 -12 15 -18 27
-32 57 -39 68 -51 81 -7 8 -11 21 -8 29 3 8 2 12 -3 9 -4 -3 -17 12 -27 34
-10 22 -24 40 -31 40 -7 0 -10 7 -7 18 5 16 5 16 -6 0 -6 -10 -19 -18 -28 -19
-10 0 -12 -3 -5 -6 9 -3 10 -10 3 -22 -5 -10 -6 -22 -2 -26 4 -5 2 -5 -5 -2
-6 4 -13 1 -16 -5 -4 -10 -7 -11 -18 0 -11 10 -11 12 1 12 7 0 10 3 7 6 -4 4
2 19 13 34 11 16 20 31 20 34 0 3 -126 6 -280 6 -244 0 -279 -2 -274 -15z"/>
</g>
</svg>
